<svg width="616" height="400" viewBox="0 0 616 400" fill="none" xmlns="http://www.w3.org/2000/svg">
    <path
        d="M248.71 42.3439L252.407 41.3495V48.1682V50.0149L255.251 58.3962V67.6299C255.251 68.7663 253.26 73.3121 252.407 74.7327C251.554 76.1533 247.288 74.7327 246.435 74.7327C245.582 74.7327 241.6 72.886 241.6 72.3177C241.6 71.8632 238.472 69.0031 236.908 67.6299L235.628 57.2598L234.064 66.4934C231.837 67.6299 227.04 69.9028 225.675 69.9028C224.31 69.9028 225.106 72.5545 225.675 73.8804L227.381 75.8691L231.22 74.7327L235.628 80.9832L241.6 79.5626H248.71L252.407 80.9832C254.208 79.9888 258.038 77.7727 258.948 76.8635C260.085 75.7271 264.635 75.8691 263.214 76.8635C261.792 77.8579 267.053 79.7047 263.214 79.5626C259.374 79.4205 259.801 80.1308 258.948 80.9832C258.265 81.665 261.507 83.8243 263.214 84.8187H267.053L275.869 87.0916H285.68C287.045 87.0916 285.111 89.2698 283.974 90.3589L287.955 94.1944L296.771 96.3252C297.671 95.6149 299.814 94.1944 301.179 94.1944C302.885 94.1944 304.023 101.297 306.582 103.002C309.141 104.707 308.146 108.684 311.701 110.531C314.545 112.008 313.644 109.915 312.838 108.684C313.218 106.222 313.976 100.899 313.976 99.3084C313.976 97.3196 314.687 94.1944 314.829 91.9215C314.971 89.6486 320.943 89.2224 322.507 87.0916C324.072 84.9607 331.181 82.8299 332.603 81.9776C333.741 81.2957 335.542 86.5234 336.3 89.2224C336.774 91.3533 337.836 95.757 338.291 96.3252C338.746 96.8934 341.893 95.1414 343.41 94.1944H346.68L352.083 91.9215L354.501 89.2224H361.468L364.312 87.0916C365.023 86.3339 366.843 84.4209 368.435 82.8299C370.426 80.8411 376.256 78.7103 376.967 77.0056C377.536 75.6419 380.332 75.8691 381.659 76.1533C385.024 75.2062 391.925 73.2837 392.608 73.1701C393.29 73.0564 395.736 68.4822 396.874 66.2093C398.58 66.5408 402.106 67.4594 402.561 68.4822C403.016 69.505 406.163 70.5184 407.68 70.8972L413.51 70.1869L416.496 76.1533L419.909 82.8299L411.377 89.2224L406.969 96.1832L410.24 94.1944L416.496 91.9215C419.766 91.0218 426.762 89.2224 428.582 89.2224C430.402 89.2224 430.478 91.0218 430.289 91.9215L437.967 91.0691H440.811C439.863 90.4536 437.967 88.9383 437.967 87.8019C437.967 86.6654 439.863 84.0137 440.811 82.8299L450.053 84.9607L453.039 91.0691C454.746 92.2056 458.3 94.8194 458.869 96.1832C459.438 97.5469 461.476 96.7514 462.424 96.1832L461.144 89.2224C463.04 88.9383 467.116 88.2564 468.254 87.8019C469.676 87.2336 472.662 84.2505 473.657 82.8299C474.652 81.4093 474.652 76.0112 475.221 74.0224C475.79 72.0336 489.156 68.4822 489.156 66.2093C489.156 63.9364 495.555 68.0561 497.403 68.4822C499.252 68.9084 502.948 66.7776 503.802 66.2093C504.655 65.6411 510.911 57.2598 512.902 57.2598C514.893 57.2598 518.447 58.6804 519.869 59.6748C521.007 60.4703 522.618 58.3962 523.282 57.2598C524.23 55.4131 526.325 51.4923 527.121 50.5832C527.917 49.674 530.771 46.9844 532.098 45.7533C533.899 44.6168 537.785 42.3155 538.923 42.2019C540.345 42.0598 538.496 39.5028 537.501 39.5028C536.705 39.5028 535.368 36.2829 534.799 34.6729L540.06 26.8598L553.142 17.4841L563.664 11.3757C565.797 11.8019 570.177 12.6826 570.632 12.7962C571.087 12.9099 572.243 11.8966 572.765 11.3757C571.058 10.9022 567.646 9.78466 567.646 9.10279C567.646 8.25045 570.063 5.8355 570.632 5.12522C571.087 4.55699 571.295 3.65731 571.343 3.27849L576.746 1.99998L579.305 5.8355L581.58 8.1084C582.86 9.62366 585.704 12.8815 586.842 13.7906C587.979 14.6998 586.368 14.8324 585.42 14.785L581.58 17.4841C580.301 17.6262 577.542 18.0239 576.746 18.4785C575.95 18.9331 576.414 20.6567 576.746 21.4617L575.466 24.729H570.063C567.902 24.729 570.016 26.9072 571.343 27.9962H572.765L575.466 31.5476L577.741 34.6729L573.76 38.3663H576.746L580.585 37.0878H589.685L591.676 39.5028C591.012 41.0654 589.23 44.2191 587.41 44.3327C585.59 44.4463 588.169 54.6081 589.685 59.6748L593.525 74.5906H590.112L587.41 78.5682L586.842 86.0972C586.368 85.671 585.021 84.8187 583.429 84.8187C581.836 84.8187 582.765 87.0916 583.429 88.228L582.007 91.6374L581.58 94.9047L585.42 99.0243L589.685 106.553L591.676 105.701L590.112 104.991L592.387 102.718L598.786 109.963L604.189 117.918L608.17 120.617L605.895 123.6L604.189 124.736L605.895 128.146C607.365 129.519 610.104 132.265 609.308 132.265C608.512 132.265 607.554 134.822 607.175 136.101L614 143.204V151.159C610.114 148.886 602.028 144.113 600.776 143.204C599.525 142.295 594.662 140.836 592.387 140.221C588.785 136.716 581.58 129.396 581.58 128.146V123.6L577.741 120.617L579.305 115.929V109.963C578.784 106.601 577.741 99.7062 577.741 99.0243C577.741 98.172 575.466 94.9047 575.466 93.6262V88.228C575.893 87.8492 576.149 86.8927 573.76 86.0972C571.371 85.3017 570.3 83.3034 570.063 82.4037L569.068 77.7159L565.939 82.4037L567.646 83.6822V86.0972L570.063 88.228V92.4897V96.3252H567.646C566.622 96.3252 564.565 95.3782 563.664 94.9047L560.82 96.3252C560.441 97.6511 559.399 100.587 558.261 101.723C557.123 102.86 558.735 104.375 559.683 104.991C559.778 107.358 559.91 112.378 559.683 113.514C559.455 114.65 561.105 116.923 561.958 117.918H565.939C563.38 121.516 558.034 128.913 557.123 129.708C556.213 130.504 556.744 127.767 557.123 126.299C555.559 127.293 552.431 129.367 552.431 129.708C552.431 130.049 550.914 130.608 550.156 130.845L551.009 134.254L547.739 136.101L542.478 138.8L535.653 146.329L533.804 151.159L531.245 174.172L529.538 180.28V182.979L527.405 187.809H531.245H535.653L539.776 189.372L544.184 187.809L541.198 185.11L544.184 182.979L552.431 185.11L558.119 192.213L559.256 197.043C559.967 199.742 561.617 205.339 562.527 206.135C563.437 206.93 566.129 209.118 567.361 210.112L568.214 219.914C567.93 222.566 567.532 228.096 568.214 229.006C569.068 230.142 568.925 237.245 568.925 238.807C568.925 240.058 567.883 245.011 567.361 247.331L563.38 257.559L561.389 263.099L558.119 265.23H553.853C552.953 266.414 550.952 268.98 550.156 269.776C549.36 270.571 549.824 273.99 550.156 275.6L547.454 271.764L548.45 266.935L547.454 261.536L542.904 257.559L544.184 253.013L548.45 249.32C549.113 247.331 550.384 243.183 550.156 242.501C549.872 241.649 549.587 240.512 548.45 238.807C547.312 237.103 548.45 235.398 548.45 234.546V231.847L545.322 229.716L542.904 231.847C542.099 233.031 540.345 235.767 539.776 237.245C539.065 239.092 537.074 240.512 536.506 240.512H532.098C531.102 238.523 528.97 234.233 528.401 232.983C527.69 231.421 526.552 232.983 525.415 232.983C524.505 232.983 521.623 234.025 520.296 234.546L515.461 235.398C514.561 233.504 512.646 229.716 512.191 229.716C511.622 229.716 503.517 221.335 502.522 221.335C501.726 221.335 498.588 219.062 497.119 217.925H487.45L479.629 221.335L476.359 226.591H478.207L479.629 229.716L478.207 241.507V245.2L472.377 249.32H465.268L463.846 251.166H457.163L453.892 253.013L449.627 257.559L444.223 259.264L437.398 260.116L430.857 259.264L423.037 254.292L419.909 255.286C417.254 255.617 411.69 256.28 410.666 256.28C409.386 256.28 407.111 256.28 403.983 255.286C401.481 254.49 401.803 252.208 402.277 251.166C401.898 250.314 400.969 248.382 400.286 247.473C399.604 246.564 396.02 245.579 394.314 245.2L388.342 242.927L383.65 247.473L382.228 251.166C382.702 251.782 383.849 253.269 384.645 254.292C385.64 255.57 384.219 255.712 383.65 256.28C383.195 256.735 383.46 257.89 383.65 258.411L380.522 259.264L374.55 257.559H371.421L367.298 256.28C366.824 255.617 365.876 254.036 365.876 253.013C365.876 251.99 360.662 251.356 358.055 251.166H355.354L351.799 254.292H346.253C345.23 254.292 344.026 255.617 343.552 256.28C342.035 256.849 338.888 257.985 338.433 257.985H333.598C332.006 257.985 330.66 255.523 330.186 254.292L325.351 252.729L321.228 248.467L323.076 244.206C321.939 243.685 319.408 242.444 318.384 241.649C317.36 240.853 316.156 241.98 315.682 242.643L310.279 239.66L309.141 236.677L304.876 239.66L301.463 221.335L298.619 214.942V211.249L291.652 213.806C289.472 213.569 284.997 212.896 284.542 212.101C284.087 211.305 285.68 210.065 286.533 209.544L277.291 204.146L279.708 200.594V196.049L271.887 193.35H269.754L261.934 192.497L247.43 189.372L242.454 187.099V193.35C241.032 193.065 237.932 192.497 236.908 192.497C235.884 192.497 234.775 193.634 234.349 194.202L230.794 195.054V197.327L234.349 201.731C233.496 202.631 231.59 204.629 230.794 205.424C229.799 206.419 224.537 202.015 223.116 201.731C221.978 201.504 220.746 200.31 220.272 199.742V195.054L214.442 192.497L208.043 190.082L205.768 187.099L203.351 175.877H199.938L197.663 173.036H193.113L187.283 171.757L183.16 174.172H181.311L178.61 169.484L169.936 174.172V177.155L166.808 180.991L169.936 184.542L166.808 191.503L162.115 190.082L158.134 192.497L148.749 195.054L148.038 201.447L143.204 206.135L141.924 215.368H136.094C134.616 215.368 134.625 214.042 134.815 213.379V202.867L121.449 173.036C120.832 167.211 119.6 155.222 119.6 153.858C119.6 152.494 125.762 153.858 128.843 154.71L134.815 151.017L136.947 149.88L140.644 151.017L141.924 154.71L145.479 152.153L146.616 149.88L150.882 148.318V143.772L149.887 137.948V134.964L146.616 132.692V130.135L145.479 127.151L149.887 123.884L146.616 119.338C147.707 118.959 149.887 117.946 149.887 116.923C149.887 115.901 150.55 114.603 150.882 114.082L149.887 110.105L146.616 108.4L152.02 102.15C152.304 103.049 153.072 105.161 153.868 106.411C154.665 107.661 155.338 105.89 155.575 104.849L157.565 102.15V98.314L160.836 94.9047L163.822 93.6262L165.386 91.0691L163.822 87.2336V82.1196L169.367 74.7327L177.899 69.9028L180.885 71.1813L184.582 68.6243L183.018 66.4934L184.582 63.3682L194.819 66.4934L205.91 67.6299H209.892L211.598 63.3682L215.153 60.9533L219.703 57.2598L222.831 54.7028H224.964L229.656 48.1682H234.064L236.908 46.3215L239.041 40.2131L243.733 39.2187L248.71 42.3439Z"
        stroke="#F29021" stroke-width="2.5" class="svg-elem-1"></path>
    <path
        d="M19.5543 275.6L12.5326 278.99L11.8743 279.639L13.4103 291.035L13.9954 291.901L15.8971 295.651L14.5074 296.373L16.7017 298.681L19.5543 300.051L17.6526 303.008L16.7017 307.697L15.8971 328.037L8.87543 333.807L3.09714 341.885L2.512 342.895V343.977L2 351.262L5.29143 355.806H7.92457L9.31429 358.979L10.9234 360.494L11.5086 362.225L12.5326 363.523L12.9714 367.13V369.365V372.106L12.5326 374.27L15.0194 377.083L17.1406 379.031H16.1897H15.0194H10.9234H6.608L4.70629 381.483C5.21829 382.06 6.31543 383.272 6.608 383.502C6.90057 383.733 7.07124 384.128 7.12 384.296L8.43657 386.243L12.5326 388.551L15.0194 393.456L16.1897 395.043V397.207L18.0914 398C18.4328 397.736 19.2325 397.207 19.7006 397.207C20.1687 397.207 21.3097 396.485 21.8217 396.125L23.7966 395.043L24.4549 396.125C24.4792 396.437 24.7621 397.091 25.6983 397.207C26.6345 397.322 26.0884 396.533 25.6983 396.125H27.8194L28.9166 395.043L32.5737 394.105L34.8411 393.456H38.4251L39.5223 392.302L40.7657 390.427L42.5943 388.551C41.9848 388.335 40.7657 387.801 40.7657 387.397C40.7657 386.993 41.4971 386.46 41.8629 386.243H43.5451H46.2514L49.2503 385.161H52.6149L55.4674 382.348C56.6621 381.411 58.9051 379.434 58.32 379.031C57.7349 378.627 59.6366 378.045 60.6606 377.804L62.2697 376.29L61.6846 375.136C61.8552 374.535 62.2112 373.174 62.2697 372.539C62.3282 371.904 63.7082 372.275 64.3909 372.539L65.7074 372.106H69.9497C70.291 371.698 70.9737 370.794 70.9737 370.447C70.9737 370.101 70.291 369.197 69.9497 368.788C69.4377 368.644 68.2967 368.139 67.8286 367.274C67.3605 366.408 68.0236 364.317 68.4137 363.379L67.8286 363.956L67.3897 363.379C67.1703 362.826 66.7314 361.59 66.7314 361.071C66.7314 360.552 67.4629 359.989 67.8286 359.773L66.7314 358.546L65.1223 357.825C65.1223 358.162 64.9029 358.864 64.0251 358.979C62.928 359.123 63.3669 358.402 63.3669 357.825V356.455C64.147 355.998 65.9122 354.94 66.7314 354.363C67.7554 353.642 66.3657 353.714 65.7074 352.776C65.0491 351.839 65.1223 351.189 65.1223 350.612V349.53L67.3897 348.809C67.536 348.256 67.7408 347.064 67.3897 346.718C66.9509 346.285 67.3897 345.419 67.8286 344.265C68.2674 343.111 68.9989 344.337 68.9989 344.265V342.606C68.9989 342.029 69.4377 341.669 69.9497 341.164C70.3593 340.76 70.803 339.697 70.9737 339.216V337.557L72.5097 336.043H74.1189H78.8V306.903L19.5543 275.6Z"
        stroke="#F29021" stroke-width="2.5" class="svg-elem-2"></path>
    <style>

    </style>
</svg>