<svg width="17" height="20" viewBox="0 0 17 20" fill="none" xmlns="http://www.w3.org/2000/svg">
<path d="M10.8746 1.80658H6.07829C5.92873 1.80658 5.85394 1.80658 5.78792 1.82935C5.72954 1.84949 5.67636 1.88236 5.63224 1.92557C5.58234 1.97444 5.5489 2.04133 5.48201 2.1751L1.98201 9.1751C1.82228 9.49457 1.74241 9.6543 1.76159 9.78415C1.77834 9.89753 1.84106 9.999 1.93498 10.0647C2.04253 10.1399 2.22112 10.1399 2.57829 10.1399H7.7496L5.2496 18.4732L15.4105 7.936C15.7533 7.5805 15.9247 7.40275 15.9348 7.25065C15.9435 7.11863 15.8889 6.99032 15.7879 6.90494C15.6714 6.80658 15.4245 6.80658 14.9306 6.80658H8.9996L10.8746 1.80658Z" stroke="#FF4405" stroke-width="2" stroke-linecap="round" stroke-linejoin="round"/>
</svg>
