<svg width="269" height="89" viewBox="0 0 269 89" fill="none" xmlns="http://www.w3.org/2000/svg">
<g clip-path="url(#clip0_82_189)">
<path d="M260.621 54.3918L268.083 59.4081C265.661 63.0052 259.868 69.1769 249.853 69.1769C237.416 69.1769 228.154 59.4743 228.154 47.1314C228.154 33.997 237.514 25.0864 248.806 25.0864C260.163 25.0864 265.727 34.1946 267.527 39.1119L268.509 41.6203L239.249 53.8308C241.475 58.2532 244.944 60.4973 249.853 60.4973C254.763 60.4973 258.166 58.0551 260.621 54.3918ZM237.678 46.439L257.217 38.2542C256.137 35.5153 252.93 33.5684 249.1 33.5684C244.224 33.5684 237.449 37.9247 237.678 46.439Z" fill="#FF302F"/>
<path d="M214.048 2.6123H223.473V67.1638H214.048V2.6123Z" fill="#20B15A"/>
<path d="M199.189 26.8022H208.288V66.0083C208.288 82.2778 198.763 88.9772 187.504 88.9772C176.9 88.9772 170.518 81.783 168.129 75.9419L176.475 72.4433C177.98 76.0404 181.613 80.2981 187.504 80.2981C194.737 80.2981 199.189 75.7766 199.189 67.3285V64.1605H198.862C196.701 66.8003 192.577 69.1763 187.341 69.1763C176.409 69.1763 166.394 59.5728 166.394 47.1975C166.394 34.7555 176.409 25.0535 187.341 25.0535C192.545 25.0535 196.701 27.3966 198.862 29.9707H199.189V26.8022ZM199.843 47.1975C199.843 39.409 194.705 33.7326 188.159 33.7326C181.547 33.7326 175.984 39.409 175.984 47.1975C175.984 54.8865 181.547 60.4638 188.159 60.4638C194.705 60.4972 199.844 54.8865 199.844 47.1975" fill="#3686F7"/>
<path d="M114.649 47.0322C114.649 59.738 104.83 69.0772 92.7854 69.0772C80.7414 69.0772 70.9224 59.7051 70.9224 47.0322C70.9224 34.2607 80.7414 24.9543 92.7854 24.9543C104.83 24.9543 114.649 34.2607 114.649 47.0322ZM105.092 47.0322C105.092 39.1122 99.3964 33.6663 92.7854 33.6663C86.1744 33.6663 80.4792 39.1122 80.4792 47.0322C80.4792 54.8864 86.1744 60.3981 92.7854 60.3981C99.397 60.3981 105.092 54.8864 105.092 47.0322Z" fill="#FF302F"/>
<path d="M162.401 47.1314C162.401 59.8372 152.582 69.1764 140.538 69.1764C128.493 69.1764 118.675 59.8367 118.675 47.1314C118.675 34.3599 128.493 25.0864 140.538 25.0864C152.582 25.0864 162.401 34.3271 162.401 47.1314ZM152.811 47.1314C152.811 39.2115 147.116 33.7655 140.505 33.7655C133.894 33.7655 128.199 39.2115 128.199 47.1314C128.199 54.9857 133.894 60.4973 140.505 60.4973C147.149 60.4973 152.811 54.9528 152.811 47.1314Z" fill="#FFBA40"/>
<path d="M34.986 59.5071C21.2722 59.5071 10.5375 48.3525 10.5375 34.5246C10.5375 20.6973 21.2722 9.54264 34.986 9.54264C42.383 9.54264 47.7829 12.4796 51.7759 16.242L58.3548 9.60886C52.7909 4.22966 45.3614 0.136719 34.986 0.136719C16.1996 0.137249 0.391113 15.5825 0.391113 34.5246C0.391113 53.4678 16.1996 68.9125 34.986 68.9125C45.1323 68.9125 52.7909 65.5464 58.7804 59.2762C64.9333 53.0716 66.8315 44.3591 66.8315 37.2969C66.8315 35.0856 66.5698 32.8087 66.2751 31.1257H34.986V40.3001H57.2746C56.62 46.0427 54.82 49.9698 52.1689 52.6425C48.9614 55.9101 43.8887 59.5071 34.986 59.5071Z" fill="#3686F7"/>
</g>
<defs>
<clipPath id="clip0_82_189">
<rect width="269" height="89" fill="white"/>
</clipPath>
</defs>
</svg>
