<svg width="208" height="82" viewBox="0 0 208 82" fill="none" xmlns="http://www.w3.org/2000/svg">
<g clip-path="url(#clip0_82_186)">
<path d="M33.778 0H22.8575C11.9367 0 2.54017 8.16124 2.54017 23.9734C2.54017 33.4099 7.1113 40.5508 14.9844 44.1213L0.254206 70.6452C-0.253606 71.4106 0.254206 72.1755 1.01633 72.1755H7.87342C8.38124 72.1755 8.88905 71.9205 9.14295 71.4106L22.6036 45.3966H27.4287V71.4106C27.4287 71.6656 27.683 72.1755 28.1908 72.1755H34.2862C34.794 72.1755 35.0479 71.9205 35.0479 71.4106V1.0199C34.794 0.254975 34.5401 0 33.778 0ZM27.4287 39.276H23.3654C5.84177 39.276 7.1113 6.12103 22.6036 6.12103H27.683V39.276H27.4287Z" fill="#FF0000"/>
<path d="M70.3489 23.9734H64.2539C63.7461 23.9734 63.4918 24.2284 63.4918 24.7387V43.101H52.3171V24.7387C52.3171 24.2288 52.0631 23.9734 51.5553 23.9734H45.7139C45.2061 23.9734 44.9521 24.2284 44.9521 24.7387V71.4106C44.9521 71.9205 45.2061 72.1755 45.7139 72.1755H51.8092C52.3171 72.1755 52.5714 71.9205 52.5714 71.4106V48.9671H63.7457V71.4106C63.7457 71.9205 63.9996 72.1755 64.5078 72.1755H70.6028C71.1106 72.1755 71.3649 71.9205 71.3649 71.4106V24.7387C71.111 24.2288 70.8567 23.9734 70.3489 23.9734ZM207.492 65.7999C207.492 65.5449 207.238 65.5449 206.984 65.5449C204.444 65.5449 188.952 72.9413 188.952 48.4575C188.952 37.7461 193.016 22.6989 202.667 31.6251C202.92 31.8801 203.174 31.8801 203.428 31.8801C203.682 31.8801 203.936 31.6251 204.19 31.1151L206.73 26.7793C206.984 26.5244 206.984 26.2694 206.984 26.0144C206.984 25.5045 206.476 25.2491 205.968 24.9941C189.206 16.5779 180.571 32.135 180.571 50.2428C180.571 73.7062 197.587 77.0217 207.238 69.8807C207.745 69.6258 207.745 69.1154 207.745 68.8608L207.492 65.7999ZM165.841 45.652L177.524 24.4842C177.778 24.2288 177.524 23.7188 177.27 23.7188H171.428C169.651 23.7188 169.143 24.2288 168.635 25.5041C168.127 26.7793 159.492 44.8871 158.476 45.652V24.4837C158.476 24.2284 158.222 23.7184 157.968 23.7184H151.619C151.365 23.7184 151.111 23.9734 151.111 24.4837V71.4106C151.111 71.6656 151.365 72.1755 151.619 72.1755H157.968C158.476 72.1755 158.476 71.9205 158.476 71.4106V47.1818C159.238 47.6918 169.904 69.8803 170.158 70.6453C170.666 71.6652 171.682 72.1755 172.952 72.1755H179.301C179.809 72.1755 179.809 71.9205 179.555 71.4106L165.841 45.652ZM110.222 66.0553H108.952C107.429 66.0553 107.174 65.5453 107.174 64.2697V24.4837C107.174 23.9738 106.92 23.7184 106.666 23.7184H87.1107C86.6029 23.7184 86.349 23.9734 86.349 24.4837C86.349 35.1951 86.6029 53.0479 79.4915 66.0549H77.4603C76.9525 66.0549 76.6982 66.3099 76.6982 66.8198V80.8467C76.6982 81.3567 77.206 81.612 77.4603 81.612H82.0314C83.047 81.612 83.5552 80.8467 83.5552 80.0818V72.1755H104.127V80.8467C104.127 81.1021 104.381 81.612 104.889 81.612H109.968C110.476 81.612 111.238 81.1021 111.238 80.0818V66.8198C110.984 66.3099 110.73 66.0549 110.222 66.0549M99.5558 66.0549H85.3326C89.3963 59.4239 93.2057 48.7125 93.2057 29.8394H99.555L99.5558 66.0549ZM130.032 22.6985C119.619 22.6985 114.794 35.7051 114.794 49.987C114.794 73.4508 131.048 77.0213 142.222 70.1353C142.73 69.8803 142.73 69.6254 142.73 69.3704L141.968 66.0549C141.968 65.7995 141.714 65.5449 141.207 65.5449C137.143 65.5449 122.921 72.6855 122.921 49.4774C128 49.9874 128 49.9874 143.238 49.9874C142.984 38.2557 141.715 22.6985 130.032 22.6985ZM123.175 44.1209C123.175 25.5032 135.365 21.9328 135.365 43.611C130.032 43.611 127.746 43.611 123.175 44.1209Z" fill="black"/>
</g>
<defs>
<clipPath id="clip0_82_186">
<rect width="208" height="82" fill="white"/>
</clipPath>
</defs>
</svg>
